<mxfile host="app.diagrams.net" agent="Mozilla/5.0 (Windows NT 10.0; Win64; x64; rv:133.0) Gecko/20100101 Firefox/133.0" version="24.9.1" pages="2">
  <diagram name="Page-1" id="kFWpX1Lp_S_H9IzZ8gpZ">
    <mxGraphModel dx="2019" dy="990" grid="1" gridSize="10" guides="1" tooltips="1" connect="1" arrows="1" fold="1" page="1" pageScale="1" pageWidth="850" pageHeight="1100" math="0" shadow="0">
      <root>
        <mxCell id="0" />
        <mxCell id="1" parent="0" />
        <mxCell id="Pq9UlO6FajHON7tfBbcj-1" value="&lt;div&gt;Sensor&lt;/div&gt;&lt;div&gt;&lt;br&gt;&lt;/div&gt;&lt;div&gt;humidity_sensor.poll()&lt;br&gt;&lt;/div&gt;" style="whiteSpace=wrap;html=1;aspect=fixed;" vertex="1" parent="1">
          <mxGeometry x="25" y="470" width="80" height="80" as="geometry" />
        </mxCell>
        <mxCell id="Pq9UlO6FajHON7tfBbcj-2" value="Tidigare data" style="whiteSpace=wrap;html=1;" vertex="1" parent="1">
          <mxGeometry x="455" y="490" width="120" height="60" as="geometry" />
        </mxCell>
        <mxCell id="Pq9UlO6FajHON7tfBbcj-4" value="Tidigare data" style="whiteSpace=wrap;html=1;" vertex="1" parent="1">
          <mxGeometry x="455" y="550" width="120" height="60" as="geometry" />
        </mxCell>
        <mxCell id="Pq9UlO6FajHON7tfBbcj-5" value="Tidigare data" style="whiteSpace=wrap;html=1;" vertex="1" parent="1">
          <mxGeometry x="455" y="610" width="120" height="60" as="geometry" />
        </mxCell>
        <mxCell id="Pq9UlO6FajHON7tfBbcj-6" value="Tidigare data" style="whiteSpace=wrap;html=1;" vertex="1" parent="1">
          <mxGeometry x="455" y="670" width="120" height="60" as="geometry" />
        </mxCell>
        <mxCell id="Pq9UlO6FajHON7tfBbcj-7" value="Tidigare data" style="whiteSpace=wrap;html=1;" vertex="1" parent="1">
          <mxGeometry x="455" y="730" width="120" height="60" as="geometry" />
        </mxCell>
        <mxCell id="Pq9UlO6FajHON7tfBbcj-8" value="Statistik" style="whiteSpace=wrap;html=1;" vertex="1" parent="1">
          <mxGeometry x="705" y="490" width="120" height="60" as="geometry" />
        </mxCell>
        <mxCell id="Pq9UlO6FajHON7tfBbcj-9" value="" style="endArrow=classic;html=1;rounded=0;entryX=0.5;entryY=0;entryDx=0;entryDy=0;exitX=1;exitY=0;exitDx=0;exitDy=0;" edge="1" parent="1" source="Pq9UlO6FajHON7tfBbcj-3" target="Pq9UlO6FajHON7tfBbcj-2">
          <mxGeometry width="50" height="50" relative="1" as="geometry">
            <mxPoint x="305" y="470" as="sourcePoint" />
            <mxPoint x="515" y="470" as="targetPoint" />
            <Array as="points">
              <mxPoint x="330" y="430" />
              <mxPoint x="390" y="360" />
              <mxPoint x="430" y="350" />
              <mxPoint x="460" y="360" />
              <mxPoint x="505" y="430" />
            </Array>
          </mxGeometry>
        </mxCell>
        <mxCell id="Pq9UlO6FajHON7tfBbcj-10" value="" style="shape=flexArrow;endArrow=classic;html=1;rounded=0;entryX=0;entryY=0.5;entryDx=0;entryDy=0;" edge="1" parent="1" target="Pq9UlO6FajHON7tfBbcj-3">
          <mxGeometry width="50" height="50" relative="1" as="geometry">
            <mxPoint x="105" y="510" as="sourcePoint" />
            <mxPoint x="155" y="460" as="targetPoint" />
          </mxGeometry>
        </mxCell>
        <mxCell id="Pq9UlO6FajHON7tfBbcj-12" value="Datahanterare" style="rounded=0;whiteSpace=wrap;html=1;" vertex="1" parent="1">
          <mxGeometry x="185" y="390" width="120" height="60" as="geometry" />
        </mxCell>
        <mxCell id="Pq9UlO6FajHON7tfBbcj-13" value="" style="swimlane;startSize=0;" vertex="1" parent="1">
          <mxGeometry x="145" y="380" width="200" height="80" as="geometry" />
        </mxCell>
        <mxCell id="Pq9UlO6FajHON7tfBbcj-14" value="&lt;div&gt;Sensor&lt;/div&gt;&lt;div&gt;&lt;br&gt;&lt;/div&gt;&lt;div&gt;Poll&lt;br&gt;&lt;/div&gt;" style="whiteSpace=wrap;html=1;aspect=fixed;" vertex="1" parent="1">
          <mxGeometry x="25" y="570" width="80" height="80" as="geometry" />
        </mxCell>
        <mxCell id="Pq9UlO6FajHON7tfBbcj-15" value="&lt;div&gt;Sensor&lt;/div&gt;&lt;div&gt;&lt;br&gt;&lt;/div&gt;&lt;div&gt;Poll&lt;br&gt;&lt;/div&gt;" style="whiteSpace=wrap;html=1;aspect=fixed;" vertex="1" parent="1">
          <mxGeometry x="25" y="370" width="80" height="80" as="geometry" />
        </mxCell>
        <mxCell id="Pq9UlO6FajHON7tfBbcj-16" value="Print output" style="rounded=0;whiteSpace=wrap;html=1;" vertex="1" parent="1">
          <mxGeometry x="565" y="320" width="120" height="60" as="geometry" />
        </mxCell>
        <mxCell id="Pq9UlO6FajHON7tfBbcj-18" value="" style="endArrow=classic;html=1;rounded=0;entryX=0.5;entryY=1;entryDx=0;entryDy=0;exitX=0.417;exitY=0;exitDx=0;exitDy=0;exitPerimeter=0;" edge="1" parent="1" source="Pq9UlO6FajHON7tfBbcj-8" target="Pq9UlO6FajHON7tfBbcj-16">
          <mxGeometry width="50" height="50" relative="1" as="geometry">
            <mxPoint x="615" y="777.5" as="sourcePoint" />
            <mxPoint x="875" y="622.5" as="targetPoint" />
          </mxGeometry>
        </mxCell>
        <mxCell id="Pq9UlO6FajHON7tfBbcj-19" value="" style="shape=flexArrow;endArrow=classic;html=1;rounded=0;exitX=0;exitY=0.5;exitDx=0;exitDy=0;entryX=1;entryY=0.5;entryDx=0;entryDy=0;" edge="1" parent="1" source="Pq9UlO6FajHON7tfBbcj-8" target="Pq9UlO6FajHON7tfBbcj-2">
          <mxGeometry width="50" height="50" relative="1" as="geometry">
            <mxPoint x="385" y="830" as="sourcePoint" />
            <mxPoint x="435" y="780" as="targetPoint" />
          </mxGeometry>
        </mxCell>
        <mxCell id="Pq9UlO6FajHON7tfBbcj-20" value="Vertical Container" style="swimlane;whiteSpace=wrap;html=1;" vertex="1" parent="1">
          <mxGeometry y="300" width="370" height="390" as="geometry" />
        </mxCell>
        <mxCell id="Pq9UlO6FajHON7tfBbcj-3" value="Senaste data" style="whiteSpace=wrap;html=1;" vertex="1" parent="Pq9UlO6FajHON7tfBbcj-20">
          <mxGeometry x="185" y="180" width="120" height="60" as="geometry" />
        </mxCell>
        <mxCell id="WQSsPIbZYQb0A7ADbHgZ-1" value="float tempData" style="rounded=0;whiteSpace=wrap;html=1;" vertex="1" parent="1">
          <mxGeometry x="-135" y="380" width="120" height="60" as="geometry" />
        </mxCell>
        <mxCell id="WQSsPIbZYQb0A7ADbHgZ-2" value="generateTempData()" style="rounded=0;whiteSpace=wrap;html=1;" vertex="1" parent="1">
          <mxGeometry x="-150" y="320" width="120" height="60" as="geometry" />
        </mxCell>
        <mxCell id="WQSsPIbZYQb0A7ADbHgZ-3" value="poll()" style="rounded=0;whiteSpace=wrap;html=1;" vertex="1" parent="1">
          <mxGeometry x="-150" y="450" width="120" height="60" as="geometry" />
        </mxCell>
        <mxCell id="WQSsPIbZYQb0A7ADbHgZ-4" value="mutexTempLock" style="rounded=0;whiteSpace=wrap;html=1;" vertex="1" parent="1">
          <mxGeometry x="-150" y="260" width="120" height="60" as="geometry" />
        </mxCell>
        <mxCell id="Pq9UlO6FajHON7tfBbcj-17" value="" style="endArrow=classic;html=1;rounded=0;entryX=0;entryY=0.5;entryDx=0;entryDy=0;" edge="1" parent="1" target="Pq9UlO6FajHON7tfBbcj-16">
          <mxGeometry width="50" height="50" relative="1" as="geometry">
            <mxPoint x="520" y="490" as="sourcePoint" />
            <mxPoint x="355" y="455" as="targetPoint" />
          </mxGeometry>
        </mxCell>
        <mxCell id="WQSsPIbZYQb0A7ADbHgZ-5" value="&lt;div&gt;std::mutex mutexTempLock;&lt;/div&gt;&lt;div&gt;&lt;br&gt;&lt;/div&gt;&lt;div&gt;generateTempData(){&lt;br&gt;&lt;/div&gt;&lt;div&gt;std::lock_guard&amp;lt;std::mutex&amp;gt; temp_guard (mutexTempLock);&lt;/div&gt;&lt;div&gt;tempdata = 30;&lt;/div&gt;&lt;div&gt;}&lt;br&gt;&lt;/div&gt;" style="rounded=0;whiteSpace=wrap;html=1;" vertex="1" parent="1">
          <mxGeometry x="160" width="395" height="210" as="geometry" />
        </mxCell>
      </root>
    </mxGraphModel>
  </diagram>
  <diagram id="k_ATU1yCxfi6bzJOgLCN" name="Page-2">
    <mxGraphModel dx="1221" dy="990" grid="1" gridSize="10" guides="1" tooltips="1" connect="1" arrows="1" fold="1" page="1" pageScale="1" pageWidth="850" pageHeight="1100" math="0" shadow="0">
      <root>
        <mxCell id="0" />
        <mxCell id="1" parent="0" />
        <mxCell id="7y0pr4aVbbQ6Zs5BpCYp-1" value="Sensor" style="swimlane;fontStyle=1;align=center;verticalAlign=top;childLayout=stackLayout;horizontal=1;startSize=26;horizontalStack=0;resizeParent=1;resizeParentMax=0;resizeLast=0;collapsible=1;marginBottom=0;whiteSpace=wrap;html=1;" vertex="1" parent="1">
          <mxGeometry x="40" y="220" width="160" height="86" as="geometry" />
        </mxCell>
        <mxCell id="7y0pr4aVbbQ6Zs5BpCYp-2" value="- createData" style="text;strokeColor=none;fillColor=none;align=left;verticalAlign=top;spacingLeft=4;spacingRight=4;overflow=hidden;rotatable=0;points=[[0,0.5],[1,0.5]];portConstraint=eastwest;whiteSpace=wrap;html=1;" vertex="1" parent="7y0pr4aVbbQ6Zs5BpCYp-1">
          <mxGeometry y="26" width="160" height="26" as="geometry" />
        </mxCell>
        <mxCell id="7y0pr4aVbbQ6Zs5BpCYp-3" value="" style="line;strokeWidth=1;fillColor=none;align=left;verticalAlign=middle;spacingTop=-1;spacingLeft=3;spacingRight=3;rotatable=0;labelPosition=right;points=[];portConstraint=eastwest;strokeColor=inherit;" vertex="1" parent="7y0pr4aVbbQ6Zs5BpCYp-1">
          <mxGeometry y="52" width="160" height="8" as="geometry" />
        </mxCell>
        <mxCell id="7y0pr4aVbbQ6Zs5BpCYp-4" value="+ Poll(type): Temp" style="text;strokeColor=none;fillColor=none;align=left;verticalAlign=top;spacingLeft=4;spacingRight=4;overflow=hidden;rotatable=0;points=[[0,0.5],[1,0.5]];portConstraint=eastwest;whiteSpace=wrap;html=1;" vertex="1" parent="7y0pr4aVbbQ6Zs5BpCYp-1">
          <mxGeometry y="60" width="160" height="26" as="geometry" />
        </mxCell>
        <mxCell id="7y0pr4aVbbQ6Zs5BpCYp-5" value="Sensor" style="swimlane;fontStyle=1;align=center;verticalAlign=top;childLayout=stackLayout;horizontal=1;startSize=26;horizontalStack=0;resizeParent=1;resizeParentMax=0;resizeLast=0;collapsible=1;marginBottom=0;whiteSpace=wrap;html=1;" vertex="1" parent="1">
          <mxGeometry x="40" y="320" width="160" height="86" as="geometry" />
        </mxCell>
        <mxCell id="7y0pr4aVbbQ6Zs5BpCYp-6" value="- createData" style="text;strokeColor=none;fillColor=none;align=left;verticalAlign=top;spacingLeft=4;spacingRight=4;overflow=hidden;rotatable=0;points=[[0,0.5],[1,0.5]];portConstraint=eastwest;whiteSpace=wrap;html=1;" vertex="1" parent="7y0pr4aVbbQ6Zs5BpCYp-5">
          <mxGeometry y="26" width="160" height="26" as="geometry" />
        </mxCell>
        <mxCell id="7y0pr4aVbbQ6Zs5BpCYp-7" value="" style="line;strokeWidth=1;fillColor=none;align=left;verticalAlign=middle;spacingTop=-1;spacingLeft=3;spacingRight=3;rotatable=0;labelPosition=right;points=[];portConstraint=eastwest;strokeColor=inherit;" vertex="1" parent="7y0pr4aVbbQ6Zs5BpCYp-5">
          <mxGeometry y="52" width="160" height="8" as="geometry" />
        </mxCell>
        <mxCell id="7y0pr4aVbbQ6Zs5BpCYp-8" value="+ Poll(type): Temp" style="text;strokeColor=none;fillColor=none;align=left;verticalAlign=top;spacingLeft=4;spacingRight=4;overflow=hidden;rotatable=0;points=[[0,0.5],[1,0.5]];portConstraint=eastwest;whiteSpace=wrap;html=1;" vertex="1" parent="7y0pr4aVbbQ6Zs5BpCYp-5">
          <mxGeometry y="60" width="160" height="26" as="geometry" />
        </mxCell>
        <mxCell id="7y0pr4aVbbQ6Zs5BpCYp-9" value="Sensor" style="swimlane;fontStyle=1;align=center;verticalAlign=top;childLayout=stackLayout;horizontal=1;startSize=26;horizontalStack=0;resizeParent=1;resizeParentMax=0;resizeLast=0;collapsible=1;marginBottom=0;whiteSpace=wrap;html=1;" vertex="1" parent="1">
          <mxGeometry x="40" y="420" width="160" height="86" as="geometry" />
        </mxCell>
        <mxCell id="7y0pr4aVbbQ6Zs5BpCYp-10" value="- createData" style="text;strokeColor=none;fillColor=none;align=left;verticalAlign=top;spacingLeft=4;spacingRight=4;overflow=hidden;rotatable=0;points=[[0,0.5],[1,0.5]];portConstraint=eastwest;whiteSpace=wrap;html=1;" vertex="1" parent="7y0pr4aVbbQ6Zs5BpCYp-9">
          <mxGeometry y="26" width="160" height="26" as="geometry" />
        </mxCell>
        <mxCell id="7y0pr4aVbbQ6Zs5BpCYp-11" value="" style="line;strokeWidth=1;fillColor=none;align=left;verticalAlign=middle;spacingTop=-1;spacingLeft=3;spacingRight=3;rotatable=0;labelPosition=right;points=[];portConstraint=eastwest;strokeColor=inherit;" vertex="1" parent="7y0pr4aVbbQ6Zs5BpCYp-9">
          <mxGeometry y="52" width="160" height="8" as="geometry" />
        </mxCell>
        <mxCell id="7y0pr4aVbbQ6Zs5BpCYp-12" value="+ Poll(type): Temp" style="text;strokeColor=none;fillColor=none;align=left;verticalAlign=top;spacingLeft=4;spacingRight=4;overflow=hidden;rotatable=0;points=[[0,0.5],[1,0.5]];portConstraint=eastwest;whiteSpace=wrap;html=1;" vertex="1" parent="7y0pr4aVbbQ6Zs5BpCYp-9">
          <mxGeometry y="60" width="160" height="26" as="geometry" />
        </mxCell>
        <mxCell id="7y0pr4aVbbQ6Zs5BpCYp-13" value="Data Manager" style="swimlane;fontStyle=1;align=center;verticalAlign=top;childLayout=stackLayout;horizontal=1;startSize=26;horizontalStack=0;resizeParent=1;resizeParentMax=0;resizeLast=0;collapsible=1;marginBottom=0;whiteSpace=wrap;html=1;" vertex="1" parent="1">
          <mxGeometry x="340" y="470" width="200" height="210" as="geometry" />
        </mxCell>
        <mxCell id="7y0pr4aVbbQ6Zs5BpCYp-14" value="+ field: type" style="text;strokeColor=none;fillColor=none;align=left;verticalAlign=top;spacingLeft=4;spacingRight=4;overflow=hidden;rotatable=0;points=[[0,0.5],[1,0.5]];portConstraint=eastwest;whiteSpace=wrap;html=1;" vertex="1" parent="7y0pr4aVbbQ6Zs5BpCYp-13">
          <mxGeometry y="26" width="200" height="114" as="geometry" />
        </mxCell>
        <mxCell id="7y0pr4aVbbQ6Zs5BpCYp-15" value="" style="line;strokeWidth=1;fillColor=none;align=left;verticalAlign=middle;spacingTop=-1;spacingLeft=3;spacingRight=3;rotatable=0;labelPosition=right;points=[];portConstraint=eastwest;strokeColor=inherit;" vertex="1" parent="7y0pr4aVbbQ6Zs5BpCYp-13">
          <mxGeometry y="140" width="200" height="8" as="geometry" />
        </mxCell>
        <mxCell id="7y0pr4aVbbQ6Zs5BpCYp-16" value="+ createReport (WeatherReport)" style="text;strokeColor=none;fillColor=none;align=left;verticalAlign=top;spacingLeft=4;spacingRight=4;overflow=hidden;rotatable=0;points=[[0,0.5],[1,0.5]];portConstraint=eastwest;whiteSpace=wrap;html=1;" vertex="1" parent="7y0pr4aVbbQ6Zs5BpCYp-13">
          <mxGeometry y="148" width="200" height="32" as="geometry" />
        </mxCell>
        <mxCell id="7y0pr4aVbbQ6Zs5BpCYp-17" style="text;strokeColor=none;fillColor=none;align=left;verticalAlign=top;spacingLeft=4;spacingRight=4;overflow=hidden;rotatable=0;points=[[0,0.5],[1,0.5]];portConstraint=eastwest;whiteSpace=wrap;html=1;" vertex="1" parent="7y0pr4aVbbQ6Zs5BpCYp-13">
          <mxGeometry y="180" width="200" height="30" as="geometry" />
        </mxCell>
        <mxCell id="Zd8PsMRlyGrbxUNZtY6B-1" value="void ( vector&amp;lt;WeatherReport&amp;gt; *destination );" style="rounded=0;whiteSpace=wrap;html=1;" vertex="1" parent="1">
          <mxGeometry x="185" y="810" width="500" height="60" as="geometry" />
        </mxCell>
        <mxCell id="D3AeR7eRPVq0kB5VNeLh-1" value="void addReportToHistory ( vector&amp;lt;WeatherReport&amp;gt; *destination );" style="rounded=0;whiteSpace=wrap;html=1;" vertex="1" parent="1">
          <mxGeometry x="185" y="720" width="500" height="60" as="geometry" />
        </mxCell>
        <mxCell id="D3AeR7eRPVq0kB5VNeLh-2" value="Stats" style="swimlane;fontStyle=0;childLayout=stackLayout;horizontal=1;startSize=26;fillColor=none;horizontalStack=0;resizeParent=1;resizeParentMax=0;resizeLast=0;collapsible=1;marginBottom=0;whiteSpace=wrap;html=1;" vertex="1" parent="1">
          <mxGeometry x="570" y="311" width="220" height="104" as="geometry" />
        </mxCell>
        <mxCell id="D3AeR7eRPVq0kB5VNeLh-3" value="+ latestReport: WeatherReport" style="text;strokeColor=none;fillColor=none;align=left;verticalAlign=top;spacingLeft=4;spacingRight=4;overflow=hidden;rotatable=0;points=[[0,0.5],[1,0.5]];portConstraint=eastwest;whiteSpace=wrap;html=1;" vertex="1" parent="D3AeR7eRPVq0kB5VNeLh-2">
          <mxGeometry y="26" width="220" height="26" as="geometry" />
        </mxCell>
        <mxCell id="D3AeR7eRPVq0kB5VNeLh-4" value="+ averageWeather: WeatherReport" style="text;strokeColor=none;fillColor=none;align=left;verticalAlign=top;spacingLeft=4;spacingRight=4;overflow=hidden;rotatable=0;points=[[0,0.5],[1,0.5]];portConstraint=eastwest;whiteSpace=wrap;html=1;" vertex="1" parent="D3AeR7eRPVq0kB5VNeLh-2">
          <mxGeometry y="52" width="220" height="26" as="geometry" />
        </mxCell>
        <mxCell id="D3AeR7eRPVq0kB5VNeLh-5" value="+ field: type" style="text;strokeColor=none;fillColor=none;align=left;verticalAlign=top;spacingLeft=4;spacingRight=4;overflow=hidden;rotatable=0;points=[[0,0.5],[1,0.5]];portConstraint=eastwest;whiteSpace=wrap;html=1;" vertex="1" parent="D3AeR7eRPVq0kB5VNeLh-2">
          <mxGeometry y="78" width="220" height="26" as="geometry" />
        </mxCell>
      </root>
    </mxGraphModel>
  </diagram>
</mxfile>
